<svg xmlns="http://www.w3.org/2000/svg"
     height="30" width="30"
     viewBox="0 0 320 320">
  <path
        fill="white" stroke="none" stroke-width="1"
        d="M 142.00,0.21
           C 118.93,3.91 101.68,8.32 81.00,19.86
             69.36,26.36 54.25,37.48 45.04,47.00
             20.37,72.50 0.06,113.98 0.00,150.00
             -0.03,171.01 -0.46,184.25 5.72,205.00
             20.33,254.02 53.41,290.51 101.00,309.40
             113.98,314.55 134.08,319.83 148.00,320.00
             148.00,320.00 170.00,320.00 170.00,320.00
             191.98,319.97 221.02,310.44 240.00,299.57
             251.40,293.05 265.88,282.38 274.96,273.00
             297.12,250.10 312.87,219.47 318.08,188.00
             318.93,182.89 319.94,177.15 320.00,172.00
             320.00,172.00 320.00,150.00 320.00,150.00
             319.96,124.79 308.35,92.94 294.66,72.00
             288.34,62.34 278.60,49.86 270.00,42.28
             255.12,29.18 240.46,19.21 222.00,11.80
             206.38,5.53 186.91,0.03 170.00,0.21
             170.00,0.21 142.00,0.21 142.00,0.21 Z
           M 101.06,58.90
           C 108.39,58.77 115.13,64.75 121.00,68.67
             121.00,68.67 161.00,95.00 161.00,95.00
             161.00,95.00 229.00,140.14 229.00,140.14
             229.00,140.14 246.00,151.35 246.00,151.35
             248.67,153.23 251.89,155.53 252.46,159.00
             253.18,163.38 249.13,166.55 246.00,168.79
             246.00,168.79 219.00,186.67 219.00,186.67
             219.00,186.67 161.00,225.33 161.00,225.33
             161.00,225.33 129.00,246.58 129.00,246.58
             129.00,246.58 108.00,260.24 108.00,260.24
             105.41,261.74 101.39,263.78 98.74,261.25
             96.66,259.26 97.00,254.68 97.00,252.00
             97.00,252.00 97.00,106.00 97.00,106.00
             97.00,106.00 97.00,67.00 97.00,67.00
             97.08,62.65 96.97,60.93 101.06,58.90 Z" />
</svg>