<svg xmlns="http://www.w3.org/2000/svg"
     height="30" width="30"
     viewBox="0 0 320 320">
  <path
        fill="white" stroke="none" stroke-width="1"
         d="M 142.00,0.21
           C 118.93,3.91 101.68,8.32 81.00,19.86
             69.36,26.36 54.25,37.48 45.04,47.00
             20.37,72.50 0.06,113.98 0.00,150.00
             -0.03,171.01 -0.46,184.25 5.72,205.00
             20.33,254.02 53.41,290.51 101.00,309.40
             113.98,314.55 134.08,319.83 148.00,320.00
             148.00,320.00 170.00,320.00 170.00,320.00
             191.98,319.97 221.02,310.44 240.00,299.57
             251.40,293.05 265.88,282.38 274.96,273.00
             297.12,250.10 312.87,219.47 318.08,188.00
             318.93,182.89 319.94,177.15 320.00,172.00
             320.00,172.00 320.00,150.00 320.00,150.00
             319.96,124.79 308.35,92.94 294.66,72.00
             288.34,62.34 278.60,49.86 270.00,42.28
             255.12,29.18 240.46,19.21 222.00,11.80
             206.38,5.53 186.91,0.03 170.00,0.21
             170.00,0.21 142.00,0.21 142.00,0.21 Z
           M 105.11,60.22
           C 107.44,60.06 108.65,60.01 111.00,60.22
             114.93,59.98 126.65,59.12 129.26,61.74
             131.35,63.82 131.00,68.24 131.00,71.00
             131.00,71.00 131.00,107.00 131.00,107.00
             131.00,107.00 131.00,248.00 131.00,248.00
             130.99,256.18 131.13,258.87 122.00,259.00
             122.00,259.00 112.00,259.00 112.00,259.00
             109.24,259.00 104.82,259.35 102.74,257.26
             100.94,255.46 101.04,252.36 101.00,250.00
             101.00,250.00 101.00,224.00 101.00,224.00
             101.00,224.00 101.00,111.00 101.00,111.00
             101.00,111.00 101.00,69.00 101.00,69.00
             101.07,64.50 100.79,62.50 105.11,60.22 Z
           M 62.11,61.22
           C 62.11,61.22 67.00,61.22 67.00,61.22
             70.90,60.95 82.67,60.15 85.26,62.74
             87.35,64.82 87.00,69.24 87.00,72.00
             87.00,72.00 87.00,107.00 87.00,107.00
             87.00,107.00 87.00,248.00 87.00,248.00
             86.99,256.18 87.13,258.87 78.00,259.00
             78.00,259.00 69.00,259.00 69.00,259.00
             66.24,259.00 61.82,259.35 59.74,257.26
             57.94,255.46 58.04,252.36 58.00,250.00
             58.00,250.00 58.00,225.00 58.00,225.00
             58.00,225.00 58.00,112.00 58.00,112.00
             58.00,112.00 58.00,70.00 58.00,70.00
             58.07,65.50 57.79,63.50 62.11,61.22 Z
           M 149.06,66.77
           C 156.27,66.34 162.30,71.87 168.00,75.67
             168.00,75.67 204.00,99.42 204.00,99.42
             204.00,99.42 267.00,141.19 267.00,141.19
             272.49,144.60 287.42,152.61 288.46,159.00
             289.18,163.42 285.10,166.52 282.00,168.84
             282.00,168.84 258.00,185.00 258.00,185.00
             258.00,185.00 175.00,240.19 175.00,240.19
             175.00,240.19 155.00,253.03 155.00,253.03
             152.54,254.10 149.11,255.52 146.74,253.03
             144.66,251.26 145.00,246.68 145.00,244.00
             145.00,244.00 145.00,110.00 145.00,110.00
             145.00,110.00 145.00,75.00 145.00,75.00
             145.09,70.59 145.01,68.96 149.06,66.77 Z" />
</svg>
