<svg xmlns="http://www.w3.org/2000/svg"
     height="30" width="30"
     viewBox="0 0 320 320">
  <path
        fill="white" stroke="none" stroke-width="1"
        d="M 142.00,0.21
           C 118.93,3.91 101.68,8.32 81.00,19.86
             69.36,26.36 54.25,37.48 45.04,47.00
             20.37,72.50 0.06,113.98 0.00,150.00
             -0.03,171.01 -0.46,184.25 5.72,205.00
             20.33,254.02 53.41,290.51 101.00,309.40
             113.98,314.55 134.08,319.83 148.00,320.00
             148.00,320.00 170.00,320.00 170.00,320.00
             191.98,319.97 221.02,310.44 240.00,299.57
             251.40,293.05 265.88,282.38 274.96,273.00
             297.12,250.10 312.87,219.47 318.08,188.00
             318.93,182.89 319.94,177.15 320.00,172.00
             320.00,172.00 320.00,150.00 320.00,150.00
             319.96,124.79 308.35,92.94 294.66,72.00
             288.34,62.34 278.60,49.86 270.00,42.28
             255.12,29.18 240.46,19.21 222.00,11.80
             206.38,5.53 186.91,0.03 170.00,0.21
             170.00,0.21 142.00,0.21 142.00,0.21 Z
           M 72.00,156.00
           C 72.00,156.00 93.00,156.00 93.00,156.00
             97.74,156.07 102.72,156.72 101.54,163.00
             100.87,166.58 93.71,176.44 91.33,180.00
             91.33,180.00 67.67,216.00 67.67,216.00
             65.11,219.83 59.25,230.52 54.91,231.53
             50.98,232.44 48.73,229.81 46.67,226.96
             46.67,226.96 36.00,211.00 36.00,211.00
             36.00,211.00 10.67,173.00 10.67,173.00
             8.28,169.40 2.62,161.90 6.74,157.74
             8.52,155.94 11.65,156.04 14.00,156.00
             14.00,156.00 30.00,156.00 30.00,156.00
             30.73,140.20 37.38,113.74 45.04,100.00
             69.06,56.89 113.38,29.42 163.00,30.00
             168.43,30.07 177.51,31.57 183.00,32.61
             193.33,34.56 208.67,39.30 218.00,43.97
             240.70,55.32 264.68,79.30 276.03,102.00
             279.57,109.07 283.97,122.21 285.87,130.00
             287.52,136.76 289.92,150.22 290.00,157.00
             290.22,176.25 284.65,200.77 276.03,218.00
             264.68,240.70 240.70,264.68 218.00,276.03
             210.93,279.57 197.79,283.97 190.00,285.87
             183.24,287.52 169.78,289.92 163.00,290.00
             137.31,290.30 110.16,282.57 89.00,267.98
             84.14,264.62 79.44,261.03 75.01,257.13
             73.55,255.85 70.94,253.83 70.45,251.91
             69.77,249.29 72.57,246.06 73.98,244.00
             73.98,244.00 87.85,224.00 87.85,224.00
             89.12,222.16 91.63,217.20 94.04,217.20
             95.94,217.19 97.89,219.64 99.17,220.85
             99.17,220.85 108.00,228.54 108.00,228.54
             119.77,238.09 125.42,241.27 140.00,245.12
             144.32,246.26 155.90,248.82 160.00,248.82
             162.93,248.82 171.84,247.07 175.00,246.35
             180.48,245.09 191.16,242.05 196.00,239.63
             208.87,233.19 223.03,219.44 231.63,208.00
             234.20,204.57 237.73,199.79 239.63,196.00
             241.25,192.76 243.84,184.67 244.85,181.00
             246.17,176.19 249.04,163.61 248.79,159.00
             248.37,151.04 243.17,131.10 239.63,124.00
             231.99,108.74 211.26,88.01 196.00,80.37
             191.61,78.18 181.96,75.34 177.00,74.13
             173.36,73.24 163.41,71.18 160.00,71.18
             156.86,71.18 147.37,73.08 144.00,73.88
             138.78,75.12 128.62,78.07 124.00,80.37
             111.13,86.81 96.97,100.56 88.37,112.00
             85.80,115.43 82.27,120.21 80.37,124.00
             76.74,131.27 72.38,147.82 72.00,156.00 Z" />
</svg>
