<svg xmlns="http://www.w3.org/2000/svg"
     height="30" width="30"
     viewBox="0 0 320 320">
  <path
        fill="white" stroke="none" stroke-width="1"
        d="M 142.00,0.21
           C 118.93,3.91 101.68,8.32 81.00,19.86
             69.36,26.36 54.25,37.48 45.04,47.00
             20.37,72.50 0.06,113.98 0.00,150.00
             -0.03,171.01 -0.46,184.25 5.72,205.00
             20.33,254.02 53.41,290.51 101.00,309.40
             113.98,314.55 134.08,319.83 148.00,320.00
             148.00,320.00 170.00,320.00 170.00,320.00
             191.98,319.97 221.02,310.44 240.00,299.57
             251.40,293.05 265.88,282.38 274.96,273.00
             297.12,250.10 312.87,219.47 318.08,188.00
             318.93,182.89 319.94,177.15 320.00,172.00
             320.00,172.00 320.00,150.00 320.00,150.00
             319.96,124.79 308.35,92.94 294.66,72.00
             288.34,62.34 278.60,49.86 270.00,42.28
             255.12,29.18 240.46,19.21 222.00,11.80
             206.38,5.53 186.91,0.03 170.00,0.21
             170.00,0.21 142.00,0.21 142.00,0.21 Z
           M 189.00,159.13
           C 189.00,159.13 236.00,159.13 236.00,159.13
             238.07,159.00 241.03,158.93 243.00,159.13
             245.88,160.06 248.09,161.48 249.55,164.10
             253.88,171.91 246.18,181.72 242.00,188.00
             242.00,188.00 185.67,273.00 185.67,273.00
             185.67,273.00 171.67,294.00 171.67,294.00
             168.79,298.28 166.60,302.05 161.00,302.77
             152.55,303.86 148.98,296.97 145.00,291.00
             145.00,291.00 116.00,247.00 116.00,247.00
             116.00,247.00 81.33,195.00 81.33,195.00
             77.85,189.78 67.92,176.48 67.23,171.00
             65.92,160.66 73.99,159.01 82.00,159.00
             82.00,159.00 127.00,159.00 127.00,159.00
             127.00,159.00 127.00,40.00 127.00,40.00
             127.01,35.55 126.73,30.91 130.39,27.65
             133.43,24.95 137.20,25.02 141.00,25.00
             141.00,25.00 174.00,25.00 174.00,25.00
             177.29,25.01 180.92,24.80 183.90,26.45
             186.18,27.72 187.56,29.55 188.35,32.02
             189.46,35.46 189.00,52.23 189.00,57.00
             189.00,57.00 189.00,159.13 189.00,159.13 Z" />
</svg>
